Coordinates
version=1
nRows=17
nColumns=40
inDegrees=yes

Units are S.I. units (second, meters, Newtons, ...)
If the header above contains a line with 'inDegrees', this indicates whether rotational values are in degrees (yes) or radians (no).

endheader
time	pelvis_tilt	pelvis_list	pelvis_rotation	pelvis_tx	pelvis_ty	pelvis_tz	hip_flexion_r	hip_adduction_r	hip_rotation_r	knee_angle_r	knee_angle_r_beta	ankle_angle_r	subtalar_angle_r	mtp_angle_r	hip_flexion_l	hip_adduction_l	hip_rotation_l	knee_angle_l	knee_angle_l_beta	ankle_angle_l	subtalar_angle_l	mtp_angle_l	lumbar_extension	lumbar_bending	lumbar_rotation	arm_flex_r	arm_add_r	arm_rot_r	elbow_flex_r	pro_sup_r	wrist_flex_r	wrist_dev_r	arm_flex_l	arm_add_l	arm_rot_l	elbow_flex_l	pro_sup_l	wrist_flex_l	wrist_dev_l
      1.51000000	     -7.52890911	     -1.37752719	     -0.06555016	      0.19586188	      0.41179661	     -1.22875780	    105.38248748	    -49.11335085	     29.63655627	    124.78602175	      2.17792694	     38.68085544	     11.92513198	      0.00000000	    111.19835750	    -47.86880933	     33.30342656	    128.82162956	      2.24836158	     34.21621908	     30.10654967	      0.00000000	    -28.67522220	      2.22144349	     -6.68178104	     44.99989819	    -14.99999999	     44.99989819	     75.00017585	     45.00000026	      0.00000000	      0.00000000	     44.99989819	    -14.99999999	     44.99989819	     75.00017585	     45.00000026	      0.00000000	      0.00000000
      1.51500000	     -7.42875306	     -1.36816900	     -0.06429380	      0.19587626	      0.41111698	     -1.22889370	    105.46708623	    -49.11089116	     29.81839195	    124.87203081	      2.17942808	     38.68799318	     11.91350874	      0.00000000	    111.23447023	    -47.86428638	     33.43199112	    128.93892250	      2.25040873	     34.25841383	     30.17446451	      0.00000000	    -28.83257118	      2.26638187	     -6.59213442	     44.99989962	    -14.99999999	     44.99989962	     75.00017585	     45.00000026	      0.00000000	      0.00000000	     44.99989962	    -14.99999999	     44.99989962	     75.00017585	     45.00000026	      0.00000000	      0.00000000
      1.52000000	     -7.32303140	     -1.36224190	     -0.05207346	      0.19586783	      0.41047022	     -1.22904650	    105.52988772	    -49.11965843	     29.99083036	    124.94883936	      2.18076864	     38.70616605	     11.90971684	      0.00000000	    111.25278206	    -47.84478260	     33.54629468	    129.05260315	      2.25239283	     34.29449874	     30.22408308	      0.00000000	    -29.00504673	      2.24068998	     -6.64886147	     44.99990157	    -14.99999999	     44.99990157	     75.00017585	     45.00000026	      0.00000000	      0.00000000	     44.99990157	    -14.99999999	     44.99990157	     75.00017585	     45.00000026	      0.00000000	      0.00000000
      1.52500000	     -7.25067188	     -1.33793213	     -0.04351654	      0.19586668	      0.40975055	     -1.22917135	    105.65962260	    -49.11359604	     30.19547065	    125.03268755	      2.18223207	     38.71863513	     11.89772418	      0.00000000	    111.29096280	    -47.82638007	     33.63915739	    129.16481524	      2.25435130	     34.33026087	     30.26583411	      0.00000000	    -29.13015251	      2.21715712	     -6.67374020	     44.99990325	    -14.99999999	     44.99990325	     75.00017585	     45.00000026	      0.00000000	      0.00000000	     44.99990325	    -14.99999999	     44.99990325	     75.00017585	     45.00000026	      0.00000000	      0.00000000
      1.53000000	     -7.13856760	     -1.32602522	     -0.01929584	      0.19583935	      0.40917268	     -1.22932723	    105.72154569	    -49.12891701	     30.38554910	    125.10912708	      2.18356619	     38.73059586	     11.92145417	      0.00000000	    111.27283818	    -47.79639069	     33.72009651	    129.26871559	      2.25616471	     34.38182865	     30.30534401	      0.00000000	    -29.31268267	      2.25180530	     -6.63893900	     44.99990492	    -14.99999999	     44.99990492	     75.00017585	     45.00000026	      0.00000000	      0.00000000	     44.99990492	    -14.99999999	     44.99990492	     75.00017585	     45.00000026	      0.00000000	      0.00000000
      1.53500000	     -7.07875720	     -1.31135110	     -0.02120416	      0.19587486	      0.40842637	     -1.22941986	    105.86193929	    -49.12092998	     30.55689566	    125.19391941	      2.18504610	     38.72449034	     11.83579649	      0.00000000	    111.35230140	    -47.79426977	     33.84342388	    129.37961763	      2.25810031	     34.38229069	     30.37734488	      0.00000000	    -29.41306459	      2.17746938	     -6.72297990	     44.99990644	    -14.99999999	     44.99990644	     75.00017585	     45.00000026	      0.00000000	      0.00000000	     44.99990644	    -14.99999999	     44.99990644	     75.00017585	     45.00000026	      0.00000000	      0.00000000
      1.54000000	     -6.93943532	     -1.32728860	      0.01008601	      0.19579572	      0.40798255	     -1.22962326	    105.82243262	    -49.13999164	     30.69324446	    125.25674589	      2.18614263	     38.75250603	     11.90668758	      0.00000000	    111.31621842	    -47.74565193	     33.94585583	    129.47696832	      2.25979940	     34.45560703	     30.40885382	      0.00000000	    -29.62953121	      2.27034493	     -6.65785941	     44.99990788	    -14.99999999	     44.99990788	     75.00017585	     45.00000026	      0.00000000	      0.00000000	     44.99990788	    -14.99999999	     44.99990788	     75.00017585	     45.00000026	      0.00000000	      0.00000000
      1.54500000	     -6.76042703	     -1.32081818	     -0.02027021	      0.19581259	      0.40762071	     -1.22961944	    105.74744629	    -49.11907774	     30.78580145	    125.32269325	      2.18729362	     38.77014514	     11.88136296	      0.00000000	    111.25695250	    -47.81491760	     34.07265220	    129.55774970	      2.26120930	     34.48234874	     30.49222701	      0.00000000	    -29.90272127	      2.21293324	     -6.63613685	     44.99990937	    -14.99999999	     44.99990937	     75.00017585	     45.00000026	      0.00000000	      0.00000000	     44.99990937	    -14.99999999	     44.99990937	     75.00017585	     45.00000026	      0.00000000	      0.00000000
      1.55000000	     -6.70903668	     -1.31942168	      0.01584428	      0.19577867	      0.40685661	     -1.22979601	    105.88545694	    -49.13234481	     30.98034285	    125.41461897	      2.18889803	     38.77412126	     11.87985089	      0.00000000	    111.32915261	    -47.73541676	     34.18767276	    129.67012712	      2.26317066	     34.54813105	     30.51156516	      0.00000000	    -29.95875213	      2.27542340	     -6.60485649	     44.99991050	    -14.99999999	     44.99991050	     75.00017585	     45.00000026	      0.00000000	      0.00000000	     44.99991050	    -14.99999999	     44.99991050	     75.00017585	     45.00000026	      0.00000000	      0.00000000
      1.55500000	     -6.62686341	     -1.27101777	      0.02438909	      0.19579858	      0.40632999	     -1.22985001	    106.01532167	    -49.13339818	     31.20141025	    125.48520885	      2.19013006	     38.78078917	     11.90314284	      0.00000000	    111.29828479	    -47.74762152	     34.20594470	    129.75280114	      2.26461359	     34.54963229	     30.55601411	      0.00000000	    -30.13013812	      2.20281854	     -6.63644228	     44.99991158	    -14.99999999	     44.99991158	     75.00017585	     45.00000026	      0.00000000	      0.00000000	     44.99991158	    -14.99999999	     44.99991158	     75.00017585	     45.00000026	      0.00000000	      0.00000000
      1.56000000	     -6.46380400	     -1.31178282	      0.01583623	      0.19577395	      0.40597767	     -1.22997585	    105.88435564	    -49.12960509	     31.22873420	    125.53824717	      2.19105575	     38.80013734	     11.87027643	      0.00000000	    111.28087212	    -47.75603195	     34.37885290	    129.84063788	      2.26614663	     34.59834163	     30.62292411	      0.00000000	    -30.36933951	      2.27209579	     -6.57522247	     44.99991256	    -14.99999999	     44.99991256	     75.00017585	     45.00000026	      0.00000000	      0.00000000	     44.99991256	    -14.99999999	     44.99991256	     75.00017585	     45.00000026	      0.00000000	      0.00000000
      1.56500000	     -6.44225541	     -1.30317219	      0.05384577	      0.19576875	      0.40525226	     -1.23014716	    106.04837233	    -49.14671341	     31.41269732	    125.61029870	      2.19231329	     38.80159893	     11.83506217	      0.00000000	    111.36515274	    -47.68602894	     34.46539416	    129.94098946	      2.26789810	     34.61229595	     30.64205521	      0.00000000	    -30.41319103	      2.26579564	     -6.63807302	     44.99991340	    -14.99999999	     44.99991340	     75.00017585	     45.00000026	      0.00000000	      0.00000000	     44.99991340	    -14.99999999	     44.99991340	     75.00017585	     45.00000026	      0.00000000	      0.00000000
      1.57000000	     -6.35064353	     -1.28174841	      0.05422387	      0.19578243	      0.40472406	     -1.23020718	    106.11896822	    -49.13540806	     31.57484317	    125.68400775	      2.19359975	     38.80572022	     11.81301072	      0.00000000	    111.36494025	    -47.69283173	     34.54707406	    130.03000308	      2.26945168	     34.65573478	     30.70442317	      0.00000000	    -30.55166553	      2.24439858	     -6.59634700	     44.99991398	    -14.99999999	     44.99991398	     75.00017585	     45.00000026	      0.00000000	      0.00000000	     44.99991398	    -14.99999999	     44.99991398	     75.00017585	     45.00000026	      0.00000000	      0.00000000
      1.57500000	     -6.18731641	     -1.30869705	      0.04937120	      0.19577640	      0.40445239	     -1.23030357	    106.00370246	    -49.14790340	     31.61847854	    125.73332229	      2.19446045	     38.81336930	     11.81537228	      0.00000000	    111.32425403	    -47.71057199	     34.68196541	    130.10415439	      2.27074586	     34.69648448	     30.75857014	      0.00000000	    -30.80117047	      2.23002901	     -6.64020692	     44.99991477	    -14.99999999	     44.99991477	     75.00017585	     45.00000026	      0.00000000	      0.00000000	     44.99991477	    -14.99999999	     44.99991477	     75.00017585	     45.00000026	      0.00000000	      0.00000000
      1.58000000	     -6.13418495	     -1.28212828	      0.08903775	      0.19574964	      0.40384221	     -1.23043187	    106.14288191	    -49.15575853	     31.83434796	    125.80956709	      2.19579118	     38.82664436	     11.83666653	      0.00000000	    111.33179630	    -47.65215407	     34.72531091	    130.19246856	      2.27228724	     34.71306058	     30.76279961	      0.00000000	    -30.87931195	      2.23299250	     -6.67311206	     44.99991549	    -14.99999999	     44.99991549	     75.00017585	     45.00000026	      0.00000000	      0.00000000	     44.99991549	    -14.99999999	     44.99991549	     75.00017585	     45.00000026	      0.00000000	      0.00000000
      1.58500000	     -6.01903229	     -1.28631262	      0.09127493	      0.19574073	      0.40340071	     -1.23051713	    106.13187147	    -49.15506667	     31.93307584	    125.86951472	      2.19683746	     38.83428807	     11.80341149	      0.00000000	    111.32816236	    -47.65065684	     34.84143133	    130.27356462	      2.27370263	     34.75133275	     30.83722805	      0.00000000	    -31.04787877	      2.27056956	     -6.60490219	     44.99991590	    -14.99999999	     44.99991590	     75.00017585	     45.00000026	      0.00000000	      0.00000000	     44.99991590	    -14.99999999	     44.99991590	     75.00017585	     45.00000026	      0.00000000	      0.00000000
      1.59000000	     -5.91445875	     -1.28849625	      0.09708070	      0.19576816	      0.40302777	     -1.23059249	    106.12829383	    -49.16144321	     32.02044578	    125.92294664	      2.19777002	     38.84562125	     11.74822630	      0.00000000	    111.30400593	    -47.65566018	     34.93737941	    130.34112293	      2.27488175	     34.81971569	     30.92466219	      0.00000000	    -31.21790399	      2.26303800	     -6.59160418	     44.99991628	    -14.99999999	     44.99991628	     75.00017585	     45.00000026	      0.00000000	      0.00000000	     44.99991628	    -14.99999999	     44.99991628	     75.00017585	     45.00000026	      0.00000000	      0.00000000
